<?xml version="1.0" encoding="UTF-8" standalone="no"?>
<svg
   xmlns:dc="http://purl.org/dc/elements/1.1/"
   xmlns:cc="http://creativecommons.org/ns#"
   xmlns:rdf="http://www.w3.org/1999/02/22-rdf-syntax-ns#"
   xmlns:svg="http://www.w3.org/2000/svg"
   xmlns="http://www.w3.org/2000/svg"
   viewBox="0 0 2560 1440"
   height="1440"
   width="2560"
   xml:space="preserve"
   id="svg2"
   version="1.1"><metadata
     id="metadata8"><rdf:RDF><cc:Work
         rdf:about=""><dc:format>image/svg+xml</dc:format><dc:type
           rdf:resource="http://purl.org/dc/dcmitype/StillImage" /></cc:Work></rdf:RDF></metadata><defs
     id="defs6"><linearGradient
       id="linearGradient30"
       spreadMethod="pad"
       gradientTransform="matrix(0,-507.00272,-507.00272,0,159.91423,922.20557)"
       gradientUnits="userSpaceOnUse"
       y2="0"
       x2="1"
       y1="0"
       x1="0"><stop
         id="stop24"
         offset="0"
         style="stop-opacity:1;stop-color:#0083ec" /><stop
         id="stop26"
         offset="0.877231"
         style="stop-opacity:1;stop-color:#090e9f" /><stop
         id="stop28"
         offset="1"
         style="stop-opacity:1;stop-color:#090e9f" /></linearGradient><linearGradient
       id="linearGradient52"
       spreadMethod="pad"
       gradientTransform="matrix(-408.31329,0,0,408.31329,566.84601,868.84509)"
       gradientUnits="userSpaceOnUse"
       y2="0"
       x2="1"
       y1="0"
       x1="0"><stop
         id="stop46"
         offset="0"
         style="stop-opacity:1;stop-color:#0083ec" /><stop
         id="stop48"
         offset="0.877231"
         style="stop-opacity:1;stop-color:#090e9f" /><stop
         id="stop50"
         offset="1"
         style="stop-opacity:1;stop-color:#090e9f" /></linearGradient><linearGradient
       id="linearGradient74"
       spreadMethod="pad"
       gradientTransform="matrix(0,287.15973,287.15973,0,506.96353,561.02234)"
       gradientUnits="userSpaceOnUse"
       y2="0"
       x2="1"
       y1="0"
       x1="0"><stop
         id="stop68"
         offset="0"
         style="stop-opacity:1;stop-color:#0083ec" /><stop
         id="stop70"
         offset="0.877231"
         style="stop-opacity:1;stop-color:#090e9f" /><stop
         id="stop72"
         offset="1"
         style="stop-opacity:1;stop-color:#090e9f" /></linearGradient><linearGradient
       id="linearGradient96"
       spreadMethod="pad"
       gradientTransform="matrix(348.87488,0,0,-348.87488,149.23189,601.50861)"
       gradientUnits="userSpaceOnUse"
       y2="0"
       x2="1"
       y1="0"
       x1="0"><stop
         id="stop90"
         offset="0"
         style="stop-opacity:1;stop-color:#0083ec" /><stop
         id="stop92"
         offset="0.877231"
         style="stop-opacity:1;stop-color:#090e9f" /><stop
         id="stop94"
         offset="1"
         style="stop-opacity:1;stop-color:#090e9f" /></linearGradient><linearGradient
       id="linearGradient118"
       spreadMethod="pad"
       gradientTransform="matrix(0,-556.13312,-556.13312,0,785.04858,909.81567)"
       gradientUnits="userSpaceOnUse"
       y2="0"
       x2="1"
       y1="0"
       x1="0"><stop
         id="stop112"
         offset="0"
         style="stop-opacity:1;stop-color:#0083ec" /><stop
         id="stop114"
         offset="0.877231"
         style="stop-opacity:1;stop-color:#090e9f" /><stop
         id="stop116"
         offset="1"
         style="stop-opacity:1;stop-color:#090e9f" /></linearGradient><linearGradient
       id="linearGradient140"
       spreadMethod="pad"
       gradientTransform="matrix(0,569.22485,569.22485,0,1187.0555,412.70215)"
       gradientUnits="userSpaceOnUse"
       y2="0"
       x2="1"
       y1="0"
       x1="0"><stop
         id="stop134"
         offset="0"
         style="stop-opacity:1;stop-color:#0083ec" /><stop
         id="stop136"
         offset="0.877231"
         style="stop-opacity:1;stop-color:#090e9f" /><stop
         id="stop138"
         offset="1"
         style="stop-opacity:1;stop-color:#090e9f" /></linearGradient><linearGradient
       id="linearGradient162"
       spreadMethod="pad"
       gradientTransform="matrix(-238.55354,0,0,-238.55354,1105.3289,668.67078)"
       gradientUnits="userSpaceOnUse"
       y2="0"
       x2="1"
       y1="0"
       x1="0"><stop
         id="stop156"
         offset="0"
         style="stop-opacity:1;stop-color:#0083ec" /><stop
         id="stop158"
         offset="0.877231"
         style="stop-opacity:1;stop-color:#090e9f" /><stop
         id="stop160"
         offset="1"
         style="stop-opacity:1;stop-color:#090e9f" /></linearGradient><linearGradient
       id="linearGradient186"
       spreadMethod="pad"
       gradientTransform="matrix(0,-572.59357,-572.59357,0,1478.4591,930.37939)"
       gradientUnits="userSpaceOnUse"
       y2="0"
       x2="1"
       y1="0"
       x1="0"><stop
         id="stop178"
         offset="0"
         style="stop-opacity:1;stop-color:#0083ec" /><stop
         id="stop180"
         offset="0.58354116"
         style="stop-opacity:1;stop-color:#0083ec" /><stop
         id="stop182"
         offset="0.877231"
         style="stop-opacity:1;stop-color:#090e9f" /><stop
         id="stop184"
         offset="1"
         style="stop-opacity:1;stop-color:#090e9f" /></linearGradient><linearGradient
       id="linearGradient210"
       spreadMethod="pad"
       gradientTransform="matrix(-356.11902,574.46674,574.46674,356.11902,1800.4142,392.16489)"
       gradientUnits="userSpaceOnUse"
       y2="0"
       x2="1"
       y1="0"
       x1="0"><stop
         id="stop202"
         offset="0"
         style="stop-opacity:1;stop-color:#0083ec" /><stop
         id="stop204"
         offset="0.58354116"
         style="stop-opacity:1;stop-color:#0083ec" /><stop
         id="stop206"
         offset="0.877231"
         style="stop-opacity:1;stop-color:#090e9f" /><stop
         id="stop208"
         offset="1"
         style="stop-opacity:1;stop-color:#090e9f" /></linearGradient><linearGradient
       id="linearGradient234"
       spreadMethod="pad"
       gradientTransform="matrix(0,-539.01093,-539.01093,0,1789.9569,936.35333)"
       gradientUnits="userSpaceOnUse"
       y2="0"
       x2="1"
       y1="0"
       x1="0"><stop
         id="stop226"
         offset="0"
         style="stop-opacity:1;stop-color:#0083ec" /><stop
         id="stop228"
         offset="0.58354116"
         style="stop-opacity:1;stop-color:#0083ec" /><stop
         id="stop230"
         offset="0.877231"
         style="stop-opacity:1;stop-color:#090e9f" /><stop
         id="stop232"
         offset="1"
         style="stop-opacity:1;stop-color:#090e9f" /></linearGradient><clipPath
       id="clipPath252"
       clipPathUnits="userSpaceOnUse"><path
         id="path250"
         d="M 0,1080 H 1920 V 0 H 0 Z" /></clipPath></defs><g
     transform="matrix(1.3333333,0,0,-1.3333333,0,1440)"
     id="g10"><g
       id="g12"><g
         id="g14"><g
           id="g20"><g
             id="g22"><path
               id="path32"
               style="fill:url(#linearGradient30);stroke:none"
               d="M 246.023,396.314 H 73.734 l 0.072,536.105 h 172.288 z" /></g></g></g></g><g
       id="g34"><g
         id="g36"><g
           id="g42"><g
             id="g44"><path
               id="path54"
               style="fill:url(#linearGradient52);stroke:none"
               d="M 587.813,805.271 H 246.094 v 127.148 l 200.187,-0.737 z" /></g></g></g></g><g
       id="g56"><g
         id="g58"><g
           id="g64"><g
             id="g66"><path
               id="path76"
               style="fill:url(#linearGradient74);stroke:none"
               d="m 428.323,534.83 -2.209,272.064 161.699,-1.266 -0.823,-178.796 z" /></g></g></g></g><g
       id="g78"><g
         id="g80"><g
           id="g86"><g
             id="g88"><path
               id="path98"
               style="fill:url(#linearGradient96);stroke:none"
               d="M 428.71,534.83 H 245.148 v 133.358 h 182.73 z" /></g></g></g></g><g
       id="g100"><g
         id="g102"><g
           id="g108"><g
             id="g110"><path
               id="path120"
               style="fill:url(#linearGradient118);stroke:none"
               d="M 866.775,396.314 H 703.322 v 536.077 h 163.453 z" /></g></g></g></g><g
       id="g122"><g
         id="g124"><g
           id="g130"><g
             id="g132"><path
               id="path142"
               style="fill:url(#linearGradient140);stroke:none"
               d="m 1268.782,396.314 h -163.453 v 536.077 h 163.453 z" /></g></g></g></g><g
       id="g144"><g
         id="g146"><g
           id="g152"><g
             id="g154"><path
               id="path164"
               style="fill:url(#linearGradient162);stroke:none"
               d="m 866.775,601.509 h 238.554 V 735.833 H 866.775 Z" /></g></g></g></g><g
       id="g166"><g
         id="g168"><g
           id="g174"><g
             id="g176"><path
               id="path188"
               style="fill:url(#linearGradient186);stroke:none"
               d="m 1388.059,396.314 3.813,536.036 174.227,-289.462 2.76,-246.659 z" /></g></g></g></g><g
       id="g190"><g
         id="g192"><g
           id="g198"><g
             id="g200"><path
               id="path212"
               style="fill:url(#linearGradient210);stroke:none"
               d="m 1391.872,932.35 157.431,0.042 326.754,-536.078 h -161.998 z" /></g></g></g></g><g
       id="g214"><g
         id="g216"><g
           id="g222"><g
             id="g224"><path
               id="path236"
               style="fill:url(#linearGradient234);stroke:none"
               d="m 1876.057,396.314 -172.281,282.427 -0.048,253.651 h 172.458 z" /></g></g></g></g><g
       transform="translate(62.165,272.833)"
       id="g238"><path
         id="path240"
         style="fill:#ffffff;fill-opacity:1;fill-rule:nonzero;stroke:none"
         d="M 0,0 V 23.986 H 136.14 V 0 H 80.603 V -127.28 H 55.752 l 0,127.28 z" /></g><g
       transform="translate(369.0205,296.8193)"
       id="g242"><path
         id="path244"
         style="fill:#ffffff;fill-opacity:1;fill-rule:nonzero;stroke:none"
         d="M 0,0 V -23.986 H -90.76 V -63.532 H -9.724 V -87.519 H -90.76 V -127.28 H 0 v -23.987 H -115.611 V 0 Z" /></g><g
       id="g246"><g
         clip-path="url(#clipPath252)"
         id="g248"><g
           transform="translate(417.6421,221.1855)"
           id="g254"><path
             id="path256"
             style="fill:#ffffff;fill-opacity:1;fill-rule:nonzero;stroke:none"
             d="m 0,0 c 0,44.084 33.711,77.795 77.794,77.795 34.144,0 62.668,-19.881 73.473,-51.863 H 123.606 C 114.53,43.868 97.459,53.808 77.794,53.808 47.973,53.808 25.932,30.686 25.932,0 c 0,-30.469 22.041,-53.808 51.862,-53.808 19.665,0 36.52,10.158 45.812,27.877 h 27.661 C 140.462,-57.913 111.938,-77.794 77.794,-77.794 33.711,-77.794 0,-44.083 0,0" /></g><g
           transform="translate(649.9438,296.8193)"
           id="g258"><path
             id="path260"
             style="fill:#ffffff;fill-opacity:1;fill-rule:nonzero;stroke:none"
             d="M 0,0 V -63.532 H 76.714 V 0 h 24.85 v -151.267 h -24.85 v 63.748 H 0 v -63.748 H -24.851 V 0 Z" /></g><g
           transform="translate(814.1758,296.8193)"
           id="g262"><path
             id="path264"
             style="fill:#ffffff;fill-opacity:1;fill-rule:nonzero;stroke:none"
             d="m 0,0 h 27.012 l 74.553,-109.344 V 0 h 24.851 V -151.267 H 99.404 L 24.851,-41.706 V -151.267 H 0 Z" /></g><g
           transform="translate(1075.6504,167.3779)"
           id="g266"><path
             id="path268"
             style="fill:#ffffff;fill-opacity:1;fill-rule:nonzero;stroke:none"
             d="m 0,0 c 29.821,0 51.862,23.339 51.862,53.808 0,30.685 -22.041,53.807 -51.862,53.807 -29.821,0 -51.863,-23.122 -51.863,-53.807 C -51.863,23.339 -29.821,0 0,0 m -77.794,53.808 c 0,44.084 33.71,77.795 77.794,77.795 44.083,0 77.794,-33.711 77.794,-77.795 0,-44.083 -33.711,-77.794 -77.794,-77.794 -44.084,0 -77.794,33.711 -77.794,77.794" /></g><g
           transform="translate(1235.5615,296.8193)"
           id="g270"><path
             id="path272"
             style="fill:#ffffff;fill-opacity:1;fill-rule:nonzero;stroke:none"
             d="m 0,0 v -127.28 h 82.116 v -23.987 H -24.851 V 0 Z" /></g><g
           transform="translate(1438.6943,167.3779)"
           id="g274"><path
             id="path276"
             style="fill:#ffffff;fill-opacity:1;fill-rule:nonzero;stroke:none"
             d="m 0,0 c 29.821,0 51.862,23.339 51.862,53.808 0,30.685 -22.041,53.807 -51.862,53.807 -29.821,0 -51.863,-23.122 -51.863,-53.807 C -51.863,23.339 -29.821,0 0,0 m -77.794,53.808 c 0,44.084 33.711,77.795 77.794,77.795 44.083,0 77.794,-33.711 77.794,-77.795 0,-44.083 -33.711,-77.794 -77.794,-77.794 -44.083,0 -77.794,33.711 -77.794,77.794" /></g><g
           transform="translate(1568.3535,221.1855)"
           id="g278"><path
             id="path280"
             style="fill:#ffffff;fill-opacity:1;fill-rule:nonzero;stroke:none"
             d="m 0,0 c 0,44.084 33.711,77.795 77.794,77.795 33.062,0 61.154,-18.801 72.392,-48.622 H 121.877 C 113.449,43.868 97.458,53.808 77.794,53.808 47.973,53.808 25.931,30.686 25.931,0 c 0,-30.469 22.042,-53.808 51.863,-53.808 26.796,0 46.893,17.504 51.862,41.923 H 72.392 v 23.987 h 82.116 C 161.206,-36.304 126.848,-77.794 77.794,-77.794 33.711,-77.794 0,-44.083 0,0" /></g><g
           transform="translate(1816.8652,196.335)"
           id="g282"><path
             id="path284"
             style="fill:#ffffff;fill-opacity:1;fill-rule:nonzero;stroke:none"
             d="m 0,0 -59.427,100.484 h 28.309 l 44.3,-76.065 44.083,76.065 H 84.276 L 24.851,0 V -50.782 H 0 Z" /></g></g></g></g></svg>